<svg width="221" height="150" viewBox="0 0 221 150" fill="none" xmlns="http://www.w3.org/2000/svg">
<path fill-rule="evenodd" clip-rule="evenodd" d="M22.8053 0H92.1617V13.8933H22.8053V0ZM221 87.3626C221 77.4725 214.417 69.7017 204.307 66.6405L181.972 32.967L181.737 32.7316C176.33 25.4317 165.045 23.3124 146.001 23.0769H0V36.9702H132.13V116.327H19.2787V105.73L92.1617 105.965V92.0722L19.2787 91.8367H5.40745V130.22H28.2128C30.3287 141.523 40.2032 150 51.9585 150C63.7138 150 73.5883 141.523 75.7042 130.22H152.819C154.935 141.523 164.81 150 176.565 150C188.32 150 198.195 141.523 200.311 130.22H221L221 87.3626ZM146.001 36.7347C155.17 36.9702 167.866 37.6766 170.452 40.7378L186.91 65.6986H146.001V36.7347ZM0.235106 45.9184H14.3415V60.0471H0.235106V45.9184ZM21.3947 45.9184H92.1617V59.8116H21.3947V45.9184ZM0 68.9953H71.2373V82.8885H0V68.9953ZM207.129 116.327H146.001V79.5918H199.37C202.191 80.0628 207.129 81.9466 207.129 87.1272L207.129 116.327ZM51.7234 136.107C47.7266 136.107 44.2 133.752 42.5543 130.22H61.1277C59.4819 133.752 55.9553 136.107 51.7234 136.107ZM176.565 136.107C172.568 136.107 169.041 133.752 167.396 130.22H185.734C184.088 133.752 180.562 136.107 176.565 136.107Z" fill="#25476a"/>
</svg>
