<svg width="613" height="150" viewBox="0 0 613 150" fill="none" xmlns="http://www.w3.org/2000/svg">
<path d="M284.35 114.308L254 67.4128V134.965H265.748V107.161L284.35 135.944L302.951 107.161V134.965H314.699V67.4128L284.35 114.308Z" fill="#25476a"/>
<path d="M366 68.3918L351.902 95.4128L337.804 68.3918H324.489L346.028 109.511V134.965H357.776V109.511L379.314 68.3918H366Z" fill="#25476a"/>
<path d="M447.357 95.0212C448.923 92.3779 449.804 89.3429 449.804 86.0143C449.804 76.3219 441.874 68.3918 432.182 68.3918H408.686V134.965H436.098C447.944 134.965 457.637 125.371 457.637 113.427C457.637 105.693 453.525 98.8394 447.357 95.0212ZM438.056 86.0143C438.056 89.245 435.413 91.8884 432.182 91.8884H420.434V80.1401H432.182C435.413 80.1401 438.056 82.7835 438.056 86.0143ZM436.098 123.217H420.434V103.637H436.098C441.483 103.637 445.888 108.042 445.888 113.427C445.888 118.811 441.483 123.217 436.098 123.217Z" fill="#25476a"/>
<path d="M478.748 133.573V67H467V133.573H478.748Z" fill="#25476a"/>
<path d="M523.266 78.7483V117.909H535.014V78.7483H541.867L547.741 67H510.538L516.413 78.7483H523.266ZM500.748 121.825V67H489V133.573H547.741L541.867 121.825H500.748Z" fill="#25476a"/>
<path d="M599.51 67L585.413 94.021L571.315 67H558L579.538 108.119V133.573H591.287V108.119L612.825 67H599.51Z" fill="#25476a"/>
<path fill-rule="evenodd" clip-rule="evenodd" d="M22.8053 0H92.1617V13.8933H22.8053V0ZM221 87.3626C221 77.4725 214.417 69.7017 204.307 66.6405L181.972 32.967L181.737 32.7316C176.33 25.4317 165.045 23.3124 146.001 23.0769H0V36.9702H132.13V116.327H19.2787V105.73L92.1617 105.965V92.0722L19.2787 91.8367H5.40745V130.22H28.2128C30.3287 141.523 40.2032 150 51.9585 150C63.7138 150 73.5883 141.523 75.7042 130.22H152.819C154.935 141.523 164.81 150 176.565 150C188.32 150 198.195 141.523 200.311 130.22H221L221 87.3626ZM146.001 36.7347C155.17 36.9702 167.866 37.6766 170.452 40.7378L186.91 65.6986H146.001V36.7347ZM0.235106 45.9184H14.3415V60.0471H0.235106V45.9184ZM21.3947 45.9184H92.1617V59.8116H21.3947V45.9184ZM0 68.9953H71.2373V82.8885H0V68.9953ZM207.129 116.327H146.001V79.5918H199.37C202.191 80.0628 207.129 81.9466 207.129 87.1272L207.129 116.327ZM51.7234 136.107C47.7266 136.107 44.2 133.752 42.5543 130.22H61.1277C59.4819 133.752 55.9553 136.107 51.7234 136.107ZM176.565 136.107C172.568 136.107 169.041 133.752 167.396 130.22H185.734C184.088 133.752 180.562 136.107 176.565 136.107Z" fill="#25476a"/>
</svg>
