<svg xmlns="http://www.w3.org/2000/svg" version="1.1" xmlns:xlink="http://www.w3.org/1999/xlink" width="20" height="20" x="0" y="0" viewBox="0 0 612 612" style="enable-background:new 0 0 512 512" xml:space="preserve" class=""><g><path d="M153 76.5c-42.247 0-76.5 34.253-76.5 76.5s34.253 76.5 76.5 76.5 76.5-34.253 76.5-76.5-34.253-76.5-76.5-76.5zm0 114.75c-21.133 0-38.25-17.117-38.25-38.25s17.117-38.25 38.25-38.25 38.25 17.136 38.25 38.25-17.117 38.25-38.25 38.25zM535.5 0h-459C34.253 0 0 34.253 0 76.5v459C0 577.747 34.253 612 76.5 612h459c42.247 0 76.5-34.253 76.5-76.5v-459C612 34.253 577.747 0 535.5 0zm-459 573.75c-21.133 0-38.25-17.136-38.25-38.25v-17.978l151.948-136.074L382.52 573.75H76.5zm497.25-38.25c0 21.114-17.117 38.25-38.25 38.25h-98.838L295.749 430.981 459 267.731l114.75 114.75V535.5zm0-207.927L459 210.375 268.859 403.748l-77.609-78.623-153 140.301V76.5c0-21.114 17.117-38.25 38.25-38.25h459c21.133 0 38.25 17.136 38.25 38.25v251.073z" fill="#a1a1a1" opacity="1" data-original="#000000" class=""></path></g></svg>