<?xml version="1.0" encoding="UTF-8"?>
<svg id="Layer_2" xmlns="http://www.w3.org/2000/svg" viewBox="0 0 185.34 65.41">
  <defs>
    <style>
      .cls-1 {
        fill: #fff;
        fill-rule: evenodd;
      }

      .cls-2, .cls-3 {
        fill: #3085FE;
      }

      .cls-4 {
        letter-spacing: .02em;
     
      }

      .cls-4, .cls-5 {
        font-family: Anton-Regular, Anton;
        font-size: 23.96px;
           fill:#fff;
      }

      .cls-5 {
        letter-spacing: .03em;
      }

      .cls-3 {
        font-family: Roboto-Regular, Roboto;
        font-size: 3.7px;
      }
    </style>
  </defs>
  <g id="Layer_1-2" data-name="Layer_1">
    <g>
      <path class="cls-1" d="M44.1,24.59c-1.86,0-3.52.56-4.97,1.66,1.1-1.47,1.65-3.14,1.65-5.02,0-2.33-.82-4.31-2.47-5.96-1.65-1.65-3.64-2.47-5.96-2.47s-4.31.82-5.96,2.47c-1.65,1.65-2.47,3.64-2.47,5.96,0,1.88.55,3.55,1.66,5.02-1.47-1.1-3.14-1.65-5.02-1.65-2.33,0-4.31.82-5.96,2.47-1.65,1.65-2.47,3.64-2.47,5.96s.82,4.32,2.47,5.97c1.65,1.65,3.64,2.47,5.96,2.47.01,0,.02,0,.03,0,1.86,0,3.52-.56,4.98-1.66-1.1,1.47-1.65,3.14-1.65,5.02,0,2.33.83,4.31,2.47,5.96s3.64,2.47,5.96,2.47,4.32-.82,5.96-2.47c1.65-1.65,2.47-3.64,2.47-5.96,0-.01,0-.02,0-.03,0-1.86-.56-3.52-1.66-4.99,1.47,1.1,3.14,1.66,5.03,1.66,2.33,0,4.31-.82,5.96-2.47,1.65-1.65,2.47-3.64,2.47-5.96s-.82-4.32-2.47-5.97c-1.65-1.65-3.64-2.47-5.96-2.47-.02,0-.03,0-.05,0ZM44.19,25.58s-.03,0-.04,0c-1.83,0-3.45.6-4.84,1.8-.02.02-.05.04-.08.05-.03.02-.05.03-.08.04-.03.01-.06.02-.09.02-.03,0-.06,0-.09,0-.03,0-.06,0-.09-.01-.03,0-.06-.02-.09-.03-.03-.01-.06-.03-.08-.04-.03-.02-.05-.04-.07-.06l-.61-.61s-.04-.05-.06-.07-.03-.05-.04-.08c-.01-.03-.02-.06-.03-.09,0-.03-.01-.06-.01-.09,0-.03,0-.06,0-.09,0-.03.01-.06.02-.09s.02-.06.04-.08c.02-.03.03-.05.05-.08,1.19-1.39,1.79-3,1.79-4.85,0-2.05-.73-3.81-2.18-5.27-1.46-1.46-3.21-2.19-5.27-2.19s-3.81.73-5.27,2.19c-1.46,1.46-2.18,3.21-2.18,5.27,0,1.83.6,3.45,1.8,4.84.02.02.04.05.05.08.02.03.03.05.04.08s.02.06.02.09c0,.03,0,.06,0,.09,0,.03,0,.06-.01.09,0,.03-.02.06-.03.09-.01.03-.03.06-.04.08-.02.03-.04.05-.06.07l-.6.6s-.05.04-.07.06c-.03.02-.05.03-.08.04-.03.01-.06.02-.09.03-.03,0-.06.01-.09.01-.03,0-.06,0-.09,0-.03,0-.06-.01-.09-.02-.03-.01-.06-.02-.08-.04-.03-.02-.05-.03-.08-.05-1.39-1.19-3.01-1.79-4.85-1.79-2.05,0-3.81.73-5.27,2.19-1.46,1.46-2.18,3.21-2.18,5.27s.73,3.81,2.18,5.27c1.45,1.45,3.19,2.18,5.24,2.19.01,0,.02,0,.03,0,1.83,0,3.45-.6,4.84-1.8.02-.02.05-.04.08-.05.03-.02.05-.03.08-.04.03-.01.06-.02.09-.02.03,0,.06,0,.09,0,.03,0,.06,0,.09.01.03,0,.06.02.09.03.03.01.06.03.08.04.03.02.05.04.07.06l.6.6s.04.05.06.07c.02.03.03.05.04.08.01.03.02.06.03.09,0,.03.01.06.01.09,0,.03,0,.06,0,.09,0,.03-.01.06-.02.09-.01.03-.02.06-.04.08-.02.03-.03.05-.05.08-1.19,1.39-1.79,3.01-1.79,4.85,0,2.05.73,3.81,2.19,5.27,1.46,1.46,3.21,2.19,5.27,2.19s3.81-.73,5.27-2.19c1.45-1.45,2.18-3.19,2.18-5.24,0-.01,0-.02,0-.03,0-1.83-.6-3.45-1.8-4.84-.02-.02-.04-.05-.05-.08-.02-.03-.03-.05-.04-.08-.01-.03-.02-.06-.02-.09,0-.03,0-.06,0-.09,0-.03,0-.06.01-.09,0-.03.02-.06.03-.09.01-.03.03-.06.04-.08.02-.03.04-.05.06-.07l.61-.61s.05-.04.07-.06c.03-.02.05-.03.08-.04.03-.01.06-.02.09-.03.03,0,.06-.01.09-.01.03,0,.06,0,.09,0,.03,0,.06.01.09.02.03.01.06.02.08.04.03.02.05.03.08.05,1.39,1.19,3.01,1.79,4.85,1.79,2.05,0,3.81-.73,5.27-2.18,1.46-1.46,2.18-3.21,2.18-5.27s-.73-3.81-2.19-5.27c-1.45-1.45-3.19-2.18-5.22-2.19ZM34.3,21.23c0,.54-.19,1-.57,1.38h0s-.08.1-.11.16c-.03.06-.04.12-.04.19s.01.13.04.19c.03.06.06.11.11.16l1.73,1.73s.05.04.07.06c.03.02.06.03.09.05.03.01.06.02.09.03.03,0,.06,0,.1,0s.06,0,.1,0c.03,0,.06-.02.09-.03.03-.01.06-.03.09-.05.03-.02.05-.04.07-.06,1.05-1.05,1.58-2.32,1.58-3.81s-.53-2.75-1.58-3.81c-1.05-1.05-2.32-1.58-3.81-1.58s-2.75.53-3.81,1.58c-1.05,1.05-1.58,2.32-1.58,3.8h0c0,1.49.53,2.76,1.58,3.81l1.38,1.38-8,8c-.38.38-.84.57-1.38.57,0,0-.02,0-.03,0-1.28-.01-1.92-.66-1.92-1.95s.65-1.95,1.95-1.95c.54,0,1,.19,1.38.57.02.02.05.04.07.06s.06.03.09.05c.03.01.06.02.09.03.03,0,.06,0,.1,0s.06,0,.1,0c.03,0,.06-.02.09-.03.03-.01.06-.03.09-.05.03-.02.05-.04.07-.06l1.73-1.73s.04-.05.06-.08.03-.06.05-.09c.01-.03.02-.06.03-.09,0-.03,0-.06,0-.1,0-.03,0-.06,0-.1,0-.03-.02-.06-.03-.09-.01-.03-.03-.06-.05-.09-.02-.03-.04-.05-.06-.07-1.05-1.05-2.32-1.58-3.81-1.58s-2.76.53-3.81,1.58c-1.05,1.05-1.58,2.32-1.58,3.81s.53,2.76,1.58,3.81c1.05,1.05,2.32,1.58,3.81,1.58.01,0,.02,0,.03,0,1.47,0,2.73-.53,3.77-1.58l1.38-1.38,8,8c.38.38.57.84.57,1.38,0,0,0,.02,0,.03-.01,1.28-.66,1.92-1.95,1.92s-1.95-.65-1.95-1.95c0-.54.19-1,.57-1.38.02-.02.04-.05.06-.07.02-.03.03-.06.05-.09.01-.03.02-.06.03-.09,0-.03,0-.06,0-.1,0-.03,0-.06,0-.1,0-.03-.02-.06-.03-.09-.01-.03-.03-.06-.05-.09-.02-.03-.04-.05-.06-.07l-1.73-1.73s-.05-.04-.07-.06c-.03-.02-.06-.03-.09-.05-.03-.01-.06-.02-.09-.03-.03,0-.06,0-.1,0s-.06,0-.1,0c-.03,0-.06.02-.09.03-.03.01-.06.03-.09.05-.03.02-.05.04-.07.06-1.05,1.05-1.58,2.32-1.58,3.81s.53,2.75,1.58,3.81c1.05,1.05,2.32,1.58,3.81,1.58s2.75-.53,3.81-1.58c1.05-1.05,1.58-2.32,1.58-3.81,0-.01,0-.02,0-.03,0-1.47-.53-2.73-1.58-3.77l-1.38-1.38,8-8c.38-.38.84-.57,1.38-.57,0,0,.02,0,.03,0,1.28.01,1.92.66,1.92,1.95s-.65,1.95-1.95,1.95c-.54,0-1-.19-1.38-.57-.02-.02-.05-.04-.07-.06-.03-.02-.06-.03-.09-.05-.03-.01-.06-.02-.09-.03s-.06,0-.1,0-.06,0-.1,0c-.03,0-.06.02-.09.03-.03.01-.06.03-.09.05-.03.02-.05.04-.07.06l-1.73,1.73s-.04.05-.06.07c-.02.03-.03.06-.05.09-.01.03-.02.06-.03.09,0,.03,0,.06,0,.1s0,.06,0,.1c0,.03.02.06.03.09.01.03.03.06.05.09.02.03.04.05.06.07,1.05,1.05,2.32,1.58,3.81,1.58s2.75-.53,3.81-1.58c1.05-1.05,1.58-2.32,1.58-3.81s-.53-2.76-1.58-3.81c-1.05-1.05-2.32-1.58-3.81-1.58-.01,0-.02,0-.03,0-1.47,0-2.73.53-3.77,1.58l-1.38,1.38-8-8c-.38-.38-.57-.84-.57-1.38,0-1.3.65-1.95,1.95-1.95s1.95.65,1.95,1.95ZM32.35,28.84l-4.19,4.19,4.19,4.19,4.19-4.19-4.19-4.19Z"/>
      <path class="cls-1" d="M32.71,0C14.64,0,0,14.64,0,32.71s14.64,32.71,32.71,32.71,32.71-14.64,32.71-32.71S50.77,0,32.71,0ZM32.71,56.88c-13.35,0-24.17-10.82-24.17-24.17s10.82-24.17,24.17-24.17,24.17,10.82,24.17,24.17-10.82,24.17-24.17,24.17Z"/>
      <text class="cls-3" transform="translate(5.6 33.39) rotate(-88)"><tspan x="0" y="0">N</tspan></text>
      <text class="cls-3" transform="translate(5.68 30.87) rotate(-82.85)"><tspan x="0" y="0">G</tspan></text>
      <text class="cls-3" transform="translate(5.99 28.45) rotate(-78.12)"><tspan x="0" y="0">E</tspan></text>
      <text class="cls-3" transform="translate(6.4 26.47) rotate(-73.61)"><tspan x="0" y="0">R</tspan></text>
      <text class="cls-3" transform="translate(6.99 24.45) rotate(-69.19)"><tspan x="0" y="0">Y</tspan></text>
      <text class="cls-3" transform="translate(7.77 22.43) rotate(-65.98)"><tspan x="0" y="0"> </tspan></text>
      <text class="cls-3" transform="translate(8.13 21.63) rotate(-64.1)"><tspan x="0" y="0"> </tspan></text>
      <text class="cls-3" transform="translate(8.51 20.85) rotate(-62.27)"><tspan x="0" y="0">|</tspan></text>
      <text class="cls-3" transform="translate(8.91 20.07) rotate(-60.41)"><tspan x="0" y="0"> </tspan></text>
      <text class="cls-3" transform="translate(9.34 19.31) rotate(-58.46)"><tspan x="0" y="0">I</tspan></text>
      <text class="cls-3" transform="translate(9.81 18.5) rotate(-54.76)"><tspan x="0" y="0">N</tspan></text>
      <text class="cls-3" transform="translate(11.29 16.42) rotate(-50)"><tspan x="0" y="0">F</tspan></text>
      <text class="cls-3" transform="translate(12.55 14.91) rotate(-45.64)"><tspan x="0" y="0">R</tspan></text>
      <text class="cls-3" transform="translate(14.07 13.34) rotate(-40.9)"><tspan x="0" y="0">A</tspan></text>
      <text class="cls-3" transform="translate(15.87 11.81) rotate(-37.52)"><tspan x="0" y="0"> </tspan></text>
      <text class="cls-3" transform="translate(16.57 11.28) rotate(-35.68)"><tspan x="0" y="0">|</tspan></text>
      <text class="cls-3" transform="translate(17.25 10.78) rotate(-33.87)"><tspan x="0" y="0"> </tspan></text>
      <text class="cls-3" transform="translate(17.95 10.28) rotate(-30.33)"><tspan x="0" y="0">O</tspan></text>
      <text class="cls-3" transform="translate(20.12 9.04) rotate(-26.77)"><tspan x="0" y="0"> </tspan></text>
      <text class="cls-3" transform="translate(20.87 8.64) rotate(-23.5)"><tspan x="0" y="0">&amp;</tspan></text>
      <text class="cls-3" transform="translate(22.93 7.76) rotate(-20.2)"><tspan x="0" y="0"> </tspan></text>
      <text class="cls-3" transform="translate(23.7 7.43) rotate(-15.94)"><tspan x="0" y="0">M</tspan></text>
      <text class="cls-3" transform="translate(26.73 6.6) rotate(-11.7)"><tspan x="0" y="0"> </tspan></text>
      <text class="cls-3" transform="translate(27.56 6.4) rotate(-8.19)"><tspan x="0" y="0">G</tspan></text>
      <text class="cls-3" transform="translate(29.96 6.06) rotate(-3.36)"><tspan x="0" y="0">R</tspan></text>
      <text class="cls-3" transform="translate(32.13 5.92) rotate(1.45)"><tspan x="0" y="0">O</tspan></text>
      <text class="cls-3" transform="translate(34.57 5.96) rotate(7.33)"><tspan x="0" y="0">W</tspan></text>
      <text class="cls-3" transform="translate(37.74 6.41) rotate(11.61)"><tspan x="0" y="0"> </tspan></text>
      <text class="cls-3" transform="translate(38.59 6.57) rotate(14.65)"><tspan x="0" y="0">F</tspan></text>
      <text class="cls-3" transform="translate(40.49 7.05) rotate(19.36)"><tspan x="0" y="0">O</tspan></text>
      <text class="cls-3" transform="translate(42.79 7.86) rotate(24.28)"><tspan x="0" y="0">R</tspan></text>
      <text class="cls-3" transform="translate(44.81 8.79) rotate(27.56)"><tspan x="0" y="0"> </tspan></text>
      <text class="cls-3" transform="translate(45.57 9.16) rotate(30.94)"><tspan x="0" y="0">A</tspan></text>
      <text class="cls-3" transform="translate(47.59 10.39) rotate(34.34)"><tspan x="0" y="0"> </tspan></text>
      <text class="cls-3" transform="translate(48.31 10.86) rotate(37.74)"><tspan x="0" y="0">A</tspan></text>
      <text class="cls-3" transform="translate(50.14 12.3) rotate(41.07)"><tspan x="0" y="0"> </tspan></text>
      <text class="cls-3" transform="translate(50.8 12.84) rotate(44.32)"><tspan x="0" y="0">B</tspan></text>
      <text class="cls-3" transform="translate(52.38 14.39) rotate(48.76)"><tspan x="0" y="0">E</tspan></text>
      <text class="cls-3" transform="translate(53.75 15.94) rotate(53.21)"><tspan x="0" y="0">T</tspan></text>
      <text class="cls-3" transform="translate(55.04 17.67) rotate(57.77)"><tspan x="0" y="0">T</tspan></text>
      <text class="cls-3" transform="translate(56.18 19.46) rotate(62.14)"><tspan x="0" y="0">E</tspan></text>
      <text class="cls-3" transform="translate(57.13 21.25) rotate(66.63)"><tspan x="0" y="0">R</tspan></text>
      <text class="cls-3" transform="translate(57.99 23.29) rotate(69.89)"><tspan x="0" y="0"> </tspan></text>
      <text class="cls-3" transform="translate(58.3 24.09) rotate(72.94)"><tspan x="0" y="0">F</tspan></text>
      <text class="cls-3" transform="translate(58.89 25.96) rotate(77.49)"><tspan x="0" y="0">U</tspan></text>
      <text class="cls-3" transform="translate(59.38 28.21) rotate(82.17)"><tspan x="0" y="0">T</tspan></text>
      <text class="cls-3" transform="translate(59.68 30.3) rotate(86.83)"><tspan x="0" y="0">U</tspan></text>
      <text class="cls-3" transform="translate(59.81 32.63) rotate(91.54)"><tspan x="0" y="0">R</tspan></text>
      <text class="cls-3" transform="translate(59.75 34.82) rotate(95.94)"><tspan x="0" y="0">E</tspan></text>
      <text class="cls-3" transform="translate(59.53 36.85) rotate(99)"><tspan x="0" y="0"> </tspan></text>
      <g>
        <path class="cls-2" d="M4.41,33.68l.05,1.14.93-.04-.06-1.32h.28s.08,1.66.08,1.66l-2.63.13-.08-1.65h.28s.06,1.29.06,1.29l.85-.04-.06-1.14h.28Z"/>
        <path class="cls-2" d="M5.68,31.06v.35s-2.09,1.25-2.09,1.25l2.03.07v.35s-2.64-.09-2.64-.09v-.35s2.1-1.26,2.1-1.26l-2.04-.07v-.35s2.64.09,2.64.09Z"/>
        <path class="cls-2" d="M5.62,28.59c.12.1.19.24.24.41s.05.35.02.57c-.03.21-.1.4-.22.55-.12.15-.28.26-.47.33-.2.07-.42.09-.66.06l-.23-.03c-.39-.05-.69-.18-.88-.39-.19-.21-.27-.48-.23-.81.03-.27.13-.48.29-.63.16-.15.37-.23.63-.23l-.04.34c-.35.02-.55.21-.6.55-.03.23.03.42.18.56.15.14.38.23.68.27l.21.03c.29.04.54,0,.73-.11s.3-.28.33-.51c.02-.13.02-.24,0-.34-.02-.1-.05-.19-.11-.26l-.59-.07-.08.6-.28-.04.12-.95.96.12Z"/>
        <path class="cls-2" d="M5.17,26.45l-.23,1.12.91.19.27-1.3.28.06-.34,1.64-2.58-.54.34-1.62.28.06-.27,1.28.83.17.23-1.12.28.06Z"/>
        <path class="cls-2" d="M5.74,24.95l-.17.59,1.02.3-.1.33-2.53-.74.25-.84c.08-.28.21-.48.39-.6.17-.11.39-.14.63-.06.16.05.28.13.37.25.09.12.14.26.16.43l1.25-.28h.02s-.1.36-.1.36l-1.18.25ZM5.29,25.46l.15-.51c.05-.17.04-.31-.01-.43s-.16-.21-.3-.25c-.16-.05-.29-.03-.4.03s-.19.19-.25.37l-.15.51.96.28Z"/>
        <path class="cls-2" d="M6.16,22.94l-.99-1.11.14-.37,1.22,1.44.92.35-.12.32-.92-.35-1.87.26.14-.37,1.48-.17Z"/>
        <path class="cls-2" d="M9.21,20.55l-.13.24-2.76-1.45.13-.24,2.76,1.45Z"/>
        <path class="cls-2" d="M9.7,18.73l-.18.3-2.24-1.38.18-.3,2.24,1.38Z"/>
        <path class="cls-2" d="M11.16,16.6l-.2.28-2.42-.09,1.66,1.17-.2.29-2.15-1.52.2-.29,2.43.09-1.67-1.18.2-.28,2.15,1.52Z"/>
        <path class="cls-2" d="M11.53,14.32l-.71.85.89.75-.22.27-2.02-1.69,1.05-1.25.22.18-.83.98.69.58.71-.85.22.18Z"/>
        <path class="cls-2" d="M12.67,13.26l-.43.44.76.74-.24.25-1.88-1.84.61-.62c.21-.21.42-.33.62-.35.21-.02.4.06.59.24.12.11.19.25.21.39.02.15,0,.3-.06.46l1.23.34.02.02-.26.27-1.16-.34ZM12.04,13.5l.37-.38c.12-.12.18-.25.19-.39s-.04-.26-.15-.36c-.12-.11-.24-.17-.37-.16-.13,0-.26.08-.39.21l-.37.38.71.7Z"/>
        <path class="cls-2" d="M14.95,11.67l-.83.72.26.68-.27.23-.96-2.65.23-.2,2.49,1.33-.27.23-.64-.36ZM14.01,12.11l.68-.59-1.15-.64.47,1.22Z"/>
        <path class="cls-2" d="M17.33,11.33l-.22.16-1.82-2.54.22-.16,1.82,2.54Z"/>
        <path class="cls-2" d="M19.34,8.04c.13.22.21.44.23.65.02.21,0,.4-.1.57-.09.17-.22.31-.4.41-.18.1-.36.15-.55.15-.19,0-.37-.07-.54-.19s-.32-.28-.45-.5l-.1-.16c-.13-.22-.2-.43-.22-.65-.02-.21.01-.4.1-.57s.22-.31.4-.41c.18-.11.37-.16.56-.15s.37.07.54.19.32.3.45.52l.08.14ZM18.96,8.07c-.16-.27-.33-.44-.53-.53-.19-.08-.39-.06-.58.05-.19.11-.3.27-.32.48-.02.21.04.44.18.7l.1.17c.15.26.33.43.52.52.2.08.39.07.58-.04.19-.11.3-.27.33-.47.02-.2-.04-.44-.19-.7l-.1-.17Z"/>
        <path class="cls-2" d="M20.75,7.92c-.05-.12-.06-.24-.04-.36.02-.13.1-.29.22-.5-.16-.08-.28-.16-.35-.22-.07-.06-.12-.14-.16-.21-.08-.18-.09-.35-.02-.5.06-.15.19-.27.37-.35.17-.07.32-.08.47-.03.15.05.26.15.32.3.04.1.06.2.04.3-.01.1-.06.23-.15.37l-.12.21.82.41c.01-.18-.02-.35-.1-.53l.28-.12c.12.28.16.55.1.79l.52.26-.37.16-.24-.12c-.05.11-.12.21-.22.29-.09.09-.2.15-.31.2-.24.1-.45.12-.65.06-.2-.06-.34-.2-.43-.4ZM20.72,6.47c.05.11.17.21.37.31l.14-.22c.05-.09.08-.16.09-.22s0-.12-.03-.19c-.03-.07-.09-.12-.16-.15-.08-.02-.16-.02-.24.02-.09.04-.15.1-.18.19s-.02.17.02.27ZM21.72,8.01c.16-.07.28-.2.37-.38l-.9-.45-.04.06c-.13.22-.16.4-.09.54.06.13.14.22.26.26.12.04.25.03.4-.03Z"/>
        <path class="cls-2" d="M23.7,4.69l1.42,1.83.24-2.3.43-.12.72,2.53-.33.1-.28-.99-.27-1.07-.25,2.29-.26.07-1.41-1.81.34,1.05.28.99-.33.1-.72-2.53.43-.12Z"/>
        <path class="cls-2" d="M29.74,5.74c-.07.14-.18.25-.33.34-.15.09-.33.14-.54.17-.21.03-.41,0-.59-.07-.18-.08-.33-.2-.44-.37-.12-.17-.19-.38-.23-.62l-.03-.23c-.06-.39,0-.71.14-.95.15-.24.39-.39.73-.44.27-.04.5,0,.69.11.19.12.32.3.39.55l-.34.05c-.11-.34-.34-.48-.69-.43-.23.03-.39.14-.49.32-.1.18-.12.42-.08.73l.03.21c.04.29.14.52.3.67s.35.21.58.18c.13-.02.24-.05.33-.09.09-.04.17-.1.22-.18l-.08-.58-.6.09-.04-.28.94-.14.14.96Z"/>
        <path class="cls-2" d="M31.16,4.92l-.62.04.06,1.06-.35.02-.15-2.63.87-.05c.3-.02.53.04.7.16s.26.32.27.57c0,.16-.03.31-.11.44-.08.13-.2.23-.35.29l.68,1.08v.02s-.37.02-.37.02l-.63-1.03ZM30.53,4.67l.53-.03c.17,0,.31-.06.4-.16.1-.1.14-.22.13-.37,0-.16-.07-.28-.17-.37-.1-.08-.24-.12-.43-.11l-.53.03.06,1Z"/>
        <path class="cls-2" d="M34.5,4.75c0,.26-.06.48-.15.67-.09.19-.22.33-.38.43s-.35.14-.56.14c-.21,0-.39-.06-.55-.17s-.28-.25-.36-.45c-.08-.19-.12-.41-.12-.66v-.19c.01-.25.06-.48.15-.67.09-.19.22-.34.38-.44.16-.1.35-.15.56-.14.21,0,.4.06.55.17s.28.26.36.45c.08.2.12.42.11.68v.17ZM34.15,4.57c0-.31-.05-.55-.17-.72-.12-.17-.29-.26-.52-.26-.22,0-.39.07-.52.24-.13.16-.2.39-.21.69v.19c-.01.3.04.54.17.72.12.18.3.27.52.27.22,0,.4-.07.53-.23s.2-.39.21-.7v-.2Z"/>
        <path class="cls-2" d="M35.55,5.25v.35s.12-.3.12-.3l.75-1.76.29.04.27,1.89.03.33.1-.34.64-1.73.35.04-.97,2.53-.31-.04-.29-1.97-.02-.2-.07.19-.8,1.83-.31-.04-.29-2.69.34.04.18,1.84Z"/>
        <path class="cls-2" d="M40.58,5.89l-1.07-.28-.29,1.12-.34-.09.67-2.55,1.58.41-.07.27-1.24-.32-.23.87,1.07.28-.07.27Z"/>
        <path class="cls-2" d="M43.09,6.66c-.09.24-.2.44-.35.59-.15.15-.31.25-.49.29-.18.04-.38.03-.58-.04-.2-.07-.35-.18-.47-.33s-.19-.33-.21-.54,0-.43.09-.66l.06-.18c.08-.24.2-.44.35-.59.15-.15.31-.25.5-.3s.38-.03.57.04c.2.07.36.18.48.33.12.15.19.33.2.54s-.02.44-.1.68l-.06.16ZM42.82,6.38c.1-.29.12-.54.06-.74-.06-.2-.2-.34-.41-.41-.21-.07-.4-.05-.57.06s-.31.31-.41.59l-.06.18c-.1.29-.12.53-.06.74.06.21.2.34.41.42.21.07.4.05.57-.06.17-.11.31-.31.41-.6l.06-.18Z"/>
        <path class="cls-2" d="M44.39,7.41l-.56-.25-.44.97-.32-.14,1.08-2.4.79.36c.27.12.45.28.54.47.09.19.08.4-.02.64-.07.15-.17.26-.3.34-.13.07-.28.11-.45.1l.1,1.27v.02s-.35-.15-.35-.15l-.08-1.21ZM43.94,6.9l.49.22c.16.07.3.09.43.05.13-.04.23-.13.29-.26.07-.15.07-.28.02-.4s-.16-.22-.33-.29l-.48-.22-.41.91Z"/>
        <path class="cls-2" d="M47.43,9.47l-.95-.57-.57.46-.31-.18,2.22-1.74.26.16-.49,2.78-.31-.18.14-.72ZM46.72,8.72l.77.46.25-1.29-1.02.83Z"/>
        <path class="cls-2" d="M50.12,11.39l-.87-.68-.62.39-.28-.22,2.41-1.47.24.19-.81,2.7-.28-.22.22-.7ZM49.51,10.55l.71.55.4-1.25-1.11.7Z"/>
        <path class="cls-2" d="M51.02,13.06l1.84-1.88.62.6c.2.2.32.39.34.58.02.19-.05.36-.21.53-.09.09-.19.14-.3.16-.12.02-.24,0-.36-.04.07.13.1.26.08.4-.02.14-.08.26-.19.37-.17.17-.35.25-.55.24-.2-.01-.41-.11-.61-.31l-.65-.64ZM52.13,12.42l-.66.68.41.4c.12.11.24.17.36.18.12,0,.24-.04.34-.15.22-.23.21-.46-.04-.7l-.41-.4ZM52.32,12.22l.38.37c.11.11.22.16.34.17.12,0,.22-.03.31-.13.1-.1.15-.21.13-.31-.01-.11-.08-.22-.21-.34l-.37-.36-.59.6Z"/>
        <path class="cls-2" d="M54.48,14.94l-.75-.86-.7.62.87,1-.21.19-1.1-1.26,1.98-1.74,1.09,1.24-.21.19-.86-.98-.64.56.75.86-.21.19Z"/>
        <path class="cls-2" d="M56.9,16.24l-.51-.68-1.88,1.41-.21-.28,1.88-1.41-.51-.68.23-.17,1.22,1.63-.23.17Z"/>
        <path class="cls-2" d="M58.16,18.22l-.45-.72-1.99,1.25-.18-.29,1.99-1.25-.45-.71.24-.15,1.09,1.72-.24.15Z"/>
        <path class="cls-2" d="M58.09,20.48l-.53-1.01-.83.44.62,1.17-.25.13-.78-1.48,2.33-1.23.77,1.46-.25.13-.61-1.16-.75.4.53,1.01-.25.13Z"/>
        <path class="cls-2" d="M58.61,22l-.25-.57-.98.42-.14-.32,2.42-1.04.35.8c.12.27.15.51.09.71s-.21.35-.45.45c-.15.07-.3.08-.45.05-.15-.03-.28-.11-.4-.23l-.78,1.01h-.02s-.15-.33-.15-.33l.75-.95ZM58.63,21.32l.21.49c.07.16.16.27.29.32.12.06.25.06.39,0,.15-.06.25-.16.29-.28s.03-.27-.05-.44l-.21-.49-.92.4Z"/>
        <path class="cls-2" d="M59.93,25.43l-.32-1.06-1.11.34-.1-.33,2.52-.77.48,1.56-.27.08-.38-1.23-.86.26.32,1.06-.27.08Z"/>
        <path class="cls-2" d="M61.93,27.5l-1.75.39c-.24.05-.46.02-.65-.1-.19-.12-.32-.3-.4-.56l-.02-.09c-.06-.28-.04-.52.08-.72.11-.2.3-.33.57-.39l1.75-.39.07.34-1.74.39c-.19.04-.32.12-.4.25-.08.12-.1.28-.06.47.04.19.13.33.25.41s.28.1.47.06l1.74-.39.08.34Z"/>
        <path class="cls-2" d="M62,29.99l-.12-.84-2.33.32-.05-.34,2.33-.32-.11-.84.28-.04.28,2.02-.28.04Z"/>
        <path class="cls-2" d="M62.43,32.31l-1.79.1c-.25.01-.46-.05-.62-.2-.17-.15-.27-.35-.3-.61v-.09c-.02-.29.04-.52.19-.7.15-.18.35-.28.63-.3l1.79-.1.02.34-1.78.1c-.19.01-.33.07-.43.18-.1.11-.14.26-.13.46.01.2.07.34.18.44.11.1.26.14.45.13l1.78-.1.02.35Z"/>
        <path class="cls-2" d="M60.84,33.93l.02-.62-1.06-.03v-.35s2.64.07,2.64.07l-.02.87c0,.3-.08.52-.22.68s-.34.23-.6.22c-.16,0-.31-.05-.42-.14-.12-.09-.21-.22-.26-.38l-1.13.59h-.02s.01-.37.01-.37l1.08-.54ZM61.14,33.32v.53c-.02.17.02.31.11.42.09.1.2.16.35.16.16,0,.29-.04.38-.14.09-.09.14-.23.14-.42v-.53s-.99-.03-.99-.03Z"/>
        <path class="cls-2" d="M60.78,36.73l.12-1.13-.93-.1-.14,1.32-.28-.03.17-1.66,2.62.27-.17,1.65-.28-.03.14-1.3-.84-.09-.12,1.13-.28-.03Z"/>
      </g>
      <text class="cls-4" transform="translate(73.79 30.81) scale(1.09 1)"><tspan x="0" y="0">Shreenath</tspan></text>
      <text class="cls-5" transform="translate(75.05 54.74) scale(1.09 1)"><tspan x="0" y="0">Energy</tspan></text>
    </g>
  </g>
</svg>